{"title":"Broadchurch.Season.2.Complete.HDTV.x264-SCENE","uid":11722166,"size":2029280521,"categoryP":"video","categoryS":"tv_shows","magnet":"?xt=urn:btih:6af35c1fb0bae0d826b6d5319399e844e540dbc8&amp;dn=Broadchurch.Season.2.Complete.HDTV.x264-SCENE&amp;tr=udp%3A%2F%2Ftracker.openbittorrent.com%3A80&amp;tr=udp%3A%2F%2Fopen.demonii.com%3A1337&amp;tr=udp%3A%2F%2Ftracker.coppersurfer.tk%3A6969&amp;tr=udp%3A%2F%2Fexodus.desync.com%3A6969","seeders":77,"leechers":14,"uploader":"th3d4m4g3r","files":8,"time":1424888039,"description":"My connection is slow. Please be patient. Please seed to at least 1.5 ratio so others can enjoy the show too. Thank you.\n\n-------------------------------------------\n\nBroadchurch.Season.2.Complete.HDTV.x264-SCENE\nAired: 2015-01-05 - 2015-02-23\n\n-------------------------------------------\n\nFiles:\n\nBroadchurch.S02E01.HDTV.x264-FTP.mp4\nBroadchurch.S02E02.HDTV.x264-RiVER.mp4\nBroadchurch.S02E03.HDTV.x264-RiVER.mp4\nBroadchurch.S02E04.HDTV.x264-RiVER.mp4\nBroadchurch.S02E05.HDTV.x264-RiVER.mp4\nBroadchurch.S02E06.PROPER.HDTV.x264-SRiZ.mp4\nBroadchurch.S02E07.HDTV.x264-ORGANiC.mp4\nBroadchurch.S02E08.HDTV.x264-ORGANiC.mp4\n\n-------------------------------------------\n\nMediaInfo:\n\nGeneral\nComplete name : Broadchurch.S02E01.HDTV.x264-FTP.mp4\nFormat : MPEG-4\nFile size : 245 MiB\nDuration : 44mn 12s\nOverall bit rate mode : Variable\nOverall bit rate : 774 Kbps\n\nVideo\nID : 1\nFormat : AVC\nFormat profile : &lt;a class=&quot;__cf_email__&quot; href=&quot;/cdn-cgi/l/email-protection&quot; data-cfemail=&quot;4008292728000c736e71&quot;&gt;[email&amp;#160;protected]&lt;/a&gt;&lt;script cf-hash='f9e31' type=&quot;text/javascript&quot;&gt;\n/* &lt;![CDATA[ */!function(){try{var t=&quot;currentScript&quot;in document?document.currentScript:function(){for(var t=document.getElementsByTagName(&quot;script&quot;),e=t.length;e--;)if(t[e].getAttribute(&quot;cf-hash&quot;))return t[e]}();if(t&amp;&amp;t.previousSibling){var e,r,n,i,c=t.previousSibling,a=c.getAttribute(&quot;data-cfemail&quot;);if(a){for(e=&quot;&quot;,r=parseInt(a.substr(0,2),16),n=2;a.length-n;n+=2)i=parseInt(a.substr(n,2),16)^r,e+=String.fromCharCode(i);e=document.createTextNode(e),c.parentNode.replaceChild(e,c)}}}catch(u){}}();/* ]]&gt; */&lt;/script&gt;\nFormat settings, CABAC : Yes\nFormat settings, ReFrames : 5 frames\nBit rate : 636 Kbps\nWidth : 720 pixels\nHeight : 404 pixels\nDisplay aspect ratio : 16:9\nFrame rate mode : Constant\nFrame rate : 25.000 fps\nColor space : YUV\nChroma subsampling : 4:2:0\nBit depth : 8 bits\nScan type : Progressive\nBits/(Pixel*Frame) : 0.087\nStream size : 201 MiB (82%)\nWriting library : x264 core 144 r2525 40bb568\nEncoding settings : cabac=1 / ref=5 / deblock=1:0:0 / analyse=0x3:0x113 / me=umh / subme=8 / psy=1 / psy_rd=1.00:0.00 / mixed_ref=1 / me_range=16 / chroma_me=1 / trellis=1 / 8x8dct=1 / cqm=0 / deadzone=21,11 / fast_pskip=1 / chroma_qp_offset=-2 / threads=12 / lookahead_threads=2 / sliced_threads=0 / nr=0 / decimate=1 / interlaced=0 / bluray_compat=0 / constrained_intra=0 / bframes=3 / b_pyramid=2 / b_adapt=2 / b_bias=0 / direct=3 / weightb=1 / open_gop=0 / weightp=2 / keyint=250 / keyint_min=25 / scenecut=40 / intra_refresh=0 / rc_lookahead=50 / rc=crf / mbtree=1 / crf=20.0 / qcomp=0.60 / qpmin=0 / qpmax=69 / qpstep=4 / ip_ratio=1.40 / aq=1:1.00\n\nAudio\nFormat : AAC\nFormat profile : LC\nBit rate mode : Variable\nBit rate : 132 Kbps\nMaximum bit rate : 208 Kbps\nChannel(s) : 2 channels\nSampling rate : 48.0 KHz\nCompression mode : Lossy\nStream size : 41.7 MiB (17%)","torrent":{"xt":"urn:btih:6af35c1fb0bae0d826b6d5319399e844e540dbc8","amp;dn":"Broadchurch.Season.2.Complete.HDTV.x264-SCENE","amp;tr":["udp%3A%2F%2Ftracker.openbittorrent.com%3A80","udp%3A%2F%2Fopen.demonii.com%3A1337","udp%3A%2F%2Ftracker.coppersurfer.tk%3A6969","udp%3A%2F%2Fexodus.desync.com%3A6969"],"infoHash":"6af35c1fb0bae0d826b6d5319399e844e540dbc8","infoHashBuffer":{"type":"Buffer","data":[106,243,92,31,176,186,224,216,38,182,213,49,147,153,232,68,229,64,219,200]},"announce":[],"urlList":[]}}